<svg width="49" height="48" viewBox="0 0 49 48" fill="none" xmlns="http://www.w3.org/2000/svg">
<g id="Group 1973345331">
<g id="Group 1973345410">
<g id="Group 1973345411">
<path id="Vector" d="M24.5 4L10.5 10V22C10.5 30 14.5 36 24.5 44C34.5 36 38.5 30 38.5 22V10L24.5 4Z" fill="#FFEDC9" stroke="#D8A869" stroke-width="1.5"/>
<path id="Vector_2" d="M24.5 4L10.5 10V22C10.5 30 14.5 36 24.5 44C34.5 36 38.5 30 38.5 22V10L24.5 4Z" fill="#F4D79D"/>
<path id="Vector_3" d="M18 24L22 28L31 19" stroke="#9F2089" stroke-width="3" stroke-linecap="round" stroke-linejoin="round" fill="none"/>
<circle cx="24.5" cy="24" r="2" fill="#9F2089"/>
<path id="Vector_4" d="M24.5 8L28.5 12L24.5 16L20.5 12L24.5 8Z" fill="#D8A869" opacity="0.5"/>
</g>
</g>
</g>
</svg>
